<?xml version="1.0" encoding="UTF-8" standalone="no"?>
<svg xmlns="http://www.w3.org/2000/svg" viewBox="0 0 500 200">
  <path d="M50,50 L70,50 L90,100 L110,50 L130,50 L130,130 L110,130 L110,80 L95,120 L85,120 L70,80 L70,130 L50,130 Z" fill="#7CFC00" stroke="#000000" stroke-width="5"/>
  <path d="M140,50 L190,50 L190,70 L160,70 L160,80 L185,80 L185,100 L160,100 L160,110 L190,110 L190,130 L140,130 Z" fill="#7CFC00" stroke="#000000" stroke-width="5"/>
  <path d="M200,50 L220,50 L220,110 L250,110 L250,130 L200,130 Z" fill="#7CFC00" stroke="#000000" stroke-width="5"/>
  <path d="M260,50 L280,50 L280,95 L295,95 L295,50 L315,50 L315,130 L295,130 L295,115 L280,115 L280,130 L260,130 Z" fill="#7CFC00" stroke="#000000" stroke-width="5"/>
  <path d="M325,50 L345,50 L345,130 L325,130 Z" fill="#7CFC00" stroke="#000000" stroke-width="5"/>
  <path d="M360,140 L400,140 L420,150 L430,170 L420,190 L400,200 L360,200 L340,190 L330,170 L340,150 Z" fill="#000000"/>
  <path d="M440,140 L470,140 L490,150 L500,170 L490,190 L470,200 L440,200 L420,190 L410,170 L420,150 Z" fill="#000000"/>
  <path d="M150,140 L180,140 L200,160 L200,180 L180,200 L150,200 L130,180 L130,160 Z" fill="#000000"/>
  <path d="M210,140 L240,140 L260,160 L260,180 L240,200 L210,200 L190,180 L190,160 Z" fill="#000000"/>
  <path d="M270,140 L300,140 L320,160 L320,180 L300,200 L270,200 L250,180 L250,160 Z" fill="#000000"/>
  <path d="M330,140 L350,140 L350,200 L330,200 Z" fill="#000000"/>
</svg> 